<?xml version="1.0" encoding="iso-8859-1"?>
<!-- Generator: Adobe Illustrator 19.0.0, SVG Export Plug-In . SVG Version: 6.00 Build 0)  -->
<svg version="1.1" id="Layer_1" xmlns="http://www.w3.org/2000/svg" xmlns:xlink="http://www.w3.org/1999/xlink" x="0px" y="0px"
	 viewBox="0 0 512 512" style="enable-background:new 0 0 512 512;" xml:space="preserve">
<g>
	<g>
		<path d="M349.867,0H162.133c-23.553,0.028-42.639,19.114-42.667,42.667v426.667c0.028,23.553,19.114,42.639,42.667,42.667h187.733
			c23.553-0.028,42.639-19.114,42.667-42.667V42.667C392.506,19.114,373.419,0.028,349.867,0z M375.467,469.333
			c-0.015,14.132-11.468,25.585-25.6,25.6H162.133c-14.132-0.015-25.585-11.468-25.6-25.6V409.6h238.933V469.333z M375.467,392.533
			H136.533v-307.2h238.933V392.533z M375.467,68.267H136.533v-25.6c0.015-14.132,11.468-25.585,25.6-25.6h187.733
			c14.132,0.015,25.585,11.468,25.6,25.6V68.267z"/>
	</g>
</g>
<g>
	<g>
		<path d="M256,426.667c-14.138,0-25.6,11.462-25.6,25.6c0.015,14.132,11.468,25.585,25.6,25.6c14.138,0,25.6-11.462,25.6-25.6
			C281.6,438.128,270.138,426.667,256,426.667z M256,460.8c-4.713,0-8.533-3.821-8.533-8.533c0.005-4.711,3.822-8.529,8.533-8.533
			c4.713,0,8.533,3.821,8.533,8.533C264.533,456.979,260.713,460.8,256,460.8z"/>
	</g>
</g>
<g>
	<g>
		<path d="M229.717,39.425c-0.413-1.044-1.021-2-1.792-2.817c-0.407-0.366-0.834-0.708-1.279-1.025
			c-0.475-0.324-0.992-0.582-1.538-0.767c-0.509-0.259-1.056-0.433-1.621-0.517c-2.785-0.558-5.664,0.307-7.68,2.308
			c-1.559,1.635-2.443,3.799-2.475,6.059c-0.045,4.667,3.702,8.488,8.369,8.533c0.055,0.001,0.109,0.001,0.164,0
			c2.27,0.021,4.453-0.871,6.059-2.475c0.751-0.832,1.357-1.784,1.792-2.817C230.628,43.844,230.628,41.49,229.717,39.425z"/>
	</g>
</g>
<g>
	<g>
		<path d="M290.133,34.133H256c-4.713,0-8.533,3.82-8.533,8.533S251.287,51.2,256,51.2h34.133c4.713,0,8.533-3.82,8.533-8.533
			S294.846,34.133,290.133,34.133z"/>
	</g>
</g>
<g>
	<g>
		<path d="M332.537,211.553c-6.094-8.583-13.589-16.081-22.171-22.178v0c-3.723-2.62-7.633-4.962-11.7-7.008v-12.983
			c-0.01-11.099-4.586-21.704-12.654-29.325C277.974,132.264,267.197,127.934,256,128c-23.197-0.321-42.28,18.188-42.667,41.383
			v12.985c-4.057,2.039-7.958,4.376-11.671,6.99c-42.269,30.011-52.206,88.606-22.195,130.875
			c30.011,42.269,88.606,52.206,130.875,22.195C352.612,312.417,362.549,253.822,332.537,211.553z M230.4,169.383
			c0.379-13.773,11.825-24.646,25.6-24.317c6.77-0.053,13.29,2.557,18.154,7.267c4.719,4.419,7.412,10.585,7.446,17.05v6.183
			c-16.743-4.698-34.456-4.7-51.2-0.007V169.383z M318.629,310.313c-14.404,20.289-37.747,32.339-62.629,32.329
			c-42.397,0.019-76.781-34.335-76.8-76.732c-0.011-24.895,12.051-48.25,32.358-62.652c5.01-3.597,10.45-6.556,16.192-8.808
			c18.172-7.223,38.42-7.211,56.583,0.033c5.712,2.246,11.123,5.194,16.108,8.775l0.029,0.017
			C335.043,227.819,343.173,275.741,318.629,310.313z"/>
	</g>
</g>
<g>
	<g>
		<path d="M256,206.108c-23.171-0.346-42.254,18.122-42.667,41.292c0.074,13.099,6.42,25.369,17.067,33v24.308
			c0.388,14.138,12.164,25.285,26.303,24.897c13.593-0.373,24.524-11.304,24.897-24.897V280.4c10.647-7.631,16.992-19.901,17.067-33
			C298.254,224.23,279.171,205.762,256,206.108z M268.946,268.25l-4.413,2.433v34.025c-0.399,4.713-4.542,8.21-9.255,7.812
			c-4.16-0.352-7.46-3.652-7.812-7.812v-34.025l-4.412-2.433c-7.748-4.077-12.614-12.095-12.654-20.85
			c0.781-14.138,12.875-24.967,27.014-24.186c13.048,0.72,23.466,11.139,24.186,24.186
			C281.56,256.155,276.693,264.173,268.946,268.25z"/>
	</g>
</g>
<g>
</g>
<g>
</g>
<g>
</g>
<g>
</g>
<g>
</g>
<g>
</g>
<g>
</g>
<g>
</g>
<g>
</g>
<g>
</g>
<g>
</g>
<g>
</g>
<g>
</g>
<g>
</g>
<g>
</g>
</svg>
